<svg version="1.0" xmlns="http://www.w3.org/2000/svg"
 width="2436.000000pt" height="720.000000pt" viewBox="0 0 2436.000000 720.000000"
 preserveAspectRatio="xMidYMid meet">
<g transform="translate(0.000000,720.000000) scale(0.100000,-0.100000)"
fill="#EFEDE0" stroke="none">
<path d="M15000 7131 c-244 -51 -454 -237 -535 -474 -25 -74 -27 -89 -27 -275
l-1 -196 32 -27 c27 -22 45 -27 109 -31 152 -10 393 21 446 57 11 8 26 15 33
15 21 0 113 68 181 134 61 58 102 111 129 166 7 14 17 32 21 40 45 77 65 219
58 409 -5 162 -10 172 -81 190 -66 17 -267 12 -365 -8z M171 7121 c-42 -5 -59
-13 -78 -35 -21 -24 -23 -35 -18 -70 4 -22 9 -44 11 -47 2 -3 33 -21 69 -40
105 -53 107 -55 171 -117 88 -84 139 -186 154 -312 5 -41 15 -109 22 -150 10
-61 13 -581 13 -2705 0 -2432 -1 -2638 -17 -2735 -9 -58 -20 -124 -23 -147
-11 -84 -82 -227 -142 -284 -53 -51 -141 -119 -154 -119 -4 0 -28 -14 -53 -30
-35 -24 -47 -39 -52 -66 -9 -49 11 -91 50 -104 44 -14 1920 -16 2131 -1 88 6
196 18 240 26 44 8 109 15 145 15 36 0 101 9 145 20 44 11 89 20 100 20 25 0
245 60 340 92 17 6 48 15 70 20 22 6 60 18 85 28 25 10 72 28 105 40 185 68
382 172 577 304 147 100 331 276 449 431 41 53 78 104 84 113 5 10 18 30 28
46 30 44 137 262 137 277 0 8 7 26 15 42 24 47 63 208 74 309 21 192 8 469
-28 598 -38 132 -60 200 -85 255 -33 71 -78 162 -89 180 -17 28 -78 122 -117
180 -44 66 -330 351 -400 397 -30 21 -75 51 -100 67 -25 17 -49 34 -55 38 -11
9 -71 48 -120 79 -48 29 -299 154 -311 154 -6 0 -17 7 -24 15 -7 8 -19 15 -27
15 -9 0 -41 11 -72 24 -31 13 -83 34 -116 46 -90 34 -160 67 -174 83 -23 29 3
62 81 101 159 82 252 137 387 233 77 53 265 237 309 301 52 75 121 184 128
202 7 20 43 97 66 141 10 20 18 45 18 55 1 11 9 37 20 59 11 22 19 53 20 69 0
17 7 58 16 93 28 112 2 447 -40 528 -9 17 -16 36 -16 43 0 7 -9 30 -19 50 -11
20 -32 64 -47 97 -16 33 -43 81 -61 107 -18 26 -33 50 -33 52 0 15 -100 150
-154 207 -172 181 -432 351 -700 456 -273 106 -670 207 -861 218 -55 3 -118
10 -140 16 -22 5 -166 14 -320 19 -307 10 -1528 11 -1614 1z m2164 -329 c101
-24 144 -35 190 -52 28 -9 68 -22 90 -28 60 -16 117 -38 209 -82 46 -22 86
-40 90 -40 4 0 32 -16 62 -35 30 -19 57 -35 60 -35 3 0 38 -25 79 -55 195
-144 362 -344 415 -495 60 -176 73 -273 67 -510 -5 -215 -16 -273 -75 -428
-58 -151 -234 -371 -382 -476 -108 -77 -231 -156 -242 -156 -7 0 -26 -9 -43
-20 -16 -11 -37 -20 -45 -20 -8 0 -32 -9 -53 -20 -20 -11 -42 -20 -48 -20 -6
0 -25 -6 -42 -14 -44 -20 -139 -44 -222 -57 -38 -6 -101 -18 -140 -27 -104
-24 -1075 -31 -1098 -8 -25 26 -28 197 -25 1407 2 936 5 1149 16 1162 8 10 34
18 65 20 97 8 1032 -2 1072 -11z m5 -2922 c176 -14 362 -37 425 -55 28 -7 70
-16 95 -20 25 -4 57 -14 72 -21 15 -8 35 -14 44 -14 29 0 339 -139 429 -193
59 -35 155 -101 166 -113 6 -8 17 -14 25 -14 18 0 239 -214 284 -275 78 -106
108 -153 137 -213 17 -34 35 -68 41 -75 5 -6 15 -28 20 -47 6 -19 23 -66 37
-105 65 -172 88 -343 82 -615 -6 -270 -19 -342 -113 -593 -24 -65 -116 -233
-151 -277 -114 -143 -149 -184 -200 -231 -82 -75 -165 -140 -243 -189 -85 -53
-339 -180 -359 -180 -9 0 -25 -6 -36 -13 -18 -12 -111 -43 -250 -83 -90 -26
-247 -52 -420 -71 -140 -14 -259 -18 -670 -18 -275 0 -512 3 -527 8 -21 6 -29
15 -34 45 -8 40 -9 388 -9 2027 1 1439 -2 1319 38 1335 31 12 953 12 1117 0z
M5378 7124 c-41 -6 -98 -60 -98 -95 0 -26 74 -105 107 -114 71 -17 231 -168
257 -242 44 -124 65 -218 76 -338 20 -211 32 -2365 21 -3851 -6 -775 -15
-1458 -20 -1519 -11 -124 -33 -236 -62 -310 -10 -28 -19 -54 -19 -59 0 -5 -20
-36 -44 -70 -52 -73 -98 -110 -241 -199 -22 -13 -49 -40 -59 -59 l-19 -35 27
-36 c15 -20 35 -39 44 -41 19 -6 2938 -9 3774 -4 l538 4 29 34 c27 33 28 39
32 160 10 286 4 875 -8 897 -19 32 -79 66 -103 58 -27 -9 -90 -74 -90 -94 0
-9 -7 -29 -16 -46 -9 -16 -22 -51 -30 -77 -8 -26 -19 -50 -24 -53 -6 -3 -10
-14 -10 -24 0 -25 -108 -169 -187 -249 -82 -82 -160 -137 -253 -179 -140 -63
-264 -92 -541 -124 -53 -6 -454 -9 -1052 -7 -912 3 -967 4 -984 21 -17 17 -18
90 -18 1498 0 1469 0 1481 20 1496 17 13 110 14 735 8 702 -6 839 -12 1025
-45 131 -23 277 -81 336 -133 36 -32 119 -136 119 -148 0 -6 13 -24 29 -40 40
-40 102 -41 143 -2 l28 27 0 493 0 492 -31 36 c-42 47 -74 47 -125 -2 -21 -21
-52 -56 -69 -78 -72 -98 -169 -172 -256 -195 -21 -6 -41 -15 -44 -20 -3 -5
-31 -12 -63 -16 -31 -4 -75 -13 -97 -21 -25 -9 -115 -18 -235 -25 -215 -11
-1465 -6 -1491 6 -9 4 -20 21 -23 38 -11 53 -7 2918 4 2938 12 23 86 41 175
41 39 0 412 -3 830 -5 802 -6 1078 -12 1135 -26 101 -26 157 -44 175 -56 11
-8 26 -14 35 -14 8 -1 40 -16 70 -35 30 -19 66 -39 79 -45 43 -19 188 -138
233 -192 72 -85 138 -192 138 -221 0 -12 26 -84 63 -172 42 -99 110 -124 165
-60 17 19 35 49 39 67 9 33 -2 751 -13 908 -6 78 -8 86 -39 117 l-33 33 -1824
0 c-1002 0 -1913 2 -2023 4 -110 2 -217 2 -237 0z M10690 7123 l-514 -3 -28
-27 c-22 -21 -28 -36 -28 -69 0 -44 15 -62 91 -104 14 -8 42 -23 60 -34 44
-24 114 -88 160 -146 37 -45 58 -104 84 -230 7 -36 19 -87 26 -115 12 -42 14
-490 14 -2735 0 -2463 -1 -2692 -17 -2765 -9 -44 -19 -98 -23 -120 -10 -59
-46 -164 -72 -211 -12 -22 -44 -62 -70 -88 -44 -45 -139 -116 -155 -116 -4 0
-27 -13 -51 -30 -34 -23 -46 -38 -49 -62 -8 -52 8 -95 41 -106 17 -6 201 -8
492 -5 l464 4 55 27 c30 15 77 41 105 59 27 18 53 33 58 33 5 0 20 9 34 20 14
11 36 20 49 20 13 0 41 9 61 20 21 11 47 20 58 20 11 0 46 9 78 20 31 11 73
20 94 20 21 0 79 8 128 17 73 15 144 18 380 17 177 0 317 -5 360 -12 39 -7
130 -17 203 -22 73 -6 159 -17 190 -25 31 -8 77 -15 102 -15 25 0 77 -7 115
-16 39 -9 102 -22 140 -29 133 -26 350 -72 435 -92 36 -8 95 -19 131 -24 37
-5 86 -16 109 -24 23 -8 57 -15 74 -15 18 0 66 -9 107 -20 41 -11 92 -20 114
-20 22 0 78 -7 125 -15 47 -9 164 -22 260 -31 96 -8 216 -18 265 -23 118 -12
875 -12 940 -1 28 5 96 16 152 24 55 8 109 19 120 24 10 5 38 13 63 17 65 9
260 84 365 138 11 6 38 20 60 30 63 30 247 221 279 288 47 101 30 150 -71 201
-90 45 -95 43 -233 -87 -67 -63 -126 -115 -132 -115 -6 0 -45 -16 -87 -37 -72
-34 -113 -49 -226 -78 -93 -24 -306 -38 -477 -32 -342 14 -546 28 -613 42 -39
8 -87 15 -109 15 -21 0 -77 8 -125 19 -47 10 -115 24 -151 30 -36 5 -83 15
-105 20 -50 13 -200 41 -280 52 -33 5 -78 16 -100 23 -22 8 -65 17 -95 20 -30
4 -73 13 -95 21 -22 8 -56 15 -75 15 -19 0 -53 7 -75 15 -22 8 -71 20 -110 26
-38 6 -92 17 -120 24 -27 7 -90 16 -138 20 -49 3 -100 11 -114 16 -15 5 -74
14 -132 20 -58 5 -140 16 -181 24 -41 7 -120 16 -175 19 -55 3 -116 11 -135
17 -21 7 -152 13 -322 16 -240 5 -304 3 -388 -12 -56 -9 -136 -21 -178 -25
-43 -5 -115 -20 -162 -34 -47 -13 -105 -30 -130 -36 -25 -7 -58 -18 -73 -26
-16 -8 -34 -14 -40 -14 -7 0 -52 -20 -102 -45 -105 -53 -131 -56 -146 -17 -7
19 -10 677 -9 2152 4 3429 6 3568 45 3679 8 24 15 52 15 63 0 25 46 133 73
172 64 90 76 101 206 171 76 41 105 70 116 117 6 21 0 34 -28 65 l-35 38 -204
1 c-112 0 -435 -1 -718 -3z M12575 7122 c-63 -3 -73 -6 -102 -34 -18 -18 -33
-42 -33 -55 0 -30 55 -91 105 -115 76 -36 163 -96 196 -136 44 -52 99 -184 99
-237 0 -19 7 -52 16 -73 33 -78 38 -304 39 -1907 1 -1653 4 -1791 46 -1919 10
-33 19 -72 19 -87 0 -24 19 -77 74 -214 71 -172 233 -394 374 -511 209 -174
519 -316 812 -373 262 -50 607 -73 805 -53 315 32 406 44 456 57 30 8 67 15
80 15 67 0 350 96 494 167 122 61 145 75 260 164 124 95 157 127 249 242 163
204 265 484 282 777 4 63 8 833 9 1710 1 1399 4 1615 18 1761 9 91 23 182 32
202 8 20 15 47 15 59 0 13 9 40 20 61 11 20 20 42 20 48 0 23 71 118 117 157
27 22 79 56 116 77 124 68 154 121 103 180 -17 20 -38 30 -73 36 -70 11 -1036
11 -1067 -1 -34 -13 -79 -81 -69 -106 14 -39 49 -77 88 -96 93 -44 194 -125
225 -181 38 -66 71 -148 80 -197 5 -25 13 -58 20 -75 25 -66 32 -640 26 -2150
-4 -830 -10 -1537 -15 -1570 -9 -69 -38 -179 -55 -215 -7 -14 -23 -47 -36 -75
-45 -97 -140 -235 -210 -305 -38 -38 -130 -109 -176 -137 -62 -37 -266 -133
-283 -133 -12 0 -51 -11 -206 -55 -92 -27 -278 -46 -495 -52 -189 -5 -234 -3
-370 16 -85 12 -177 28 -205 36 -27 7 -88 23 -135 35 -76 19 -104 29 -190 69
-105 48 -271 175 -338 256 -110 136 -195 305 -212 424 -5 37 -15 82 -22 101
-10 28 -13 390 -13 1825 0 1646 1 1796 17 1865 9 41 21 98 26 125 22 116 69
208 145 282 60 59 77 70 162 111 65 32 85 57 85 106 0 34 -6 48 -30 71 l-31
30 -647 0 c-356 0 -678 -1 -717 -3z M17823 7120 c-43 -10 -60 -24 -73 -65 -16
-47 6 -93 59 -125 185 -112 233 -154 280 -247 11 -22 25 -65 30 -95 5 -29 16
-82 24 -118 42 -176 42 -192 42 -2845 0 -2302 -2 -2554 -17 -2691 -9 -83 -23
-166 -31 -185 -7 -19 -17 -51 -21 -72 -19 -99 -134 -239 -247 -300 -96 -51
-129 -86 -129 -137 0 -36 28 -77 57 -85 32 -9 1067 -7 1098 2 38 10 65 45 65
81 0 42 -39 83 -127 132 -32 18 -75 47 -97 64 -46 37 -136 152 -136 175 0 9
-7 26 -15 38 -8 12 -18 43 -21 70 -3 26 -12 68 -19 93 -7 25 -17 68 -21 95 -8
57 -7 5031 2 5058 11 35 25 20 101 -116 7 -12 13 -30 13 -40 0 -11 9 -30 20
-44 11 -14 20 -35 20 -47 0 -11 9 -34 20 -51 11 -16 20 -42 20 -58 0 -15 9
-44 20 -64 11 -21 20 -49 20 -63 0 -14 9 -38 20 -55 11 -16 20 -39 20 -50 0
-11 9 -33 20 -50 11 -16 20 -39 20 -50 0 -11 9 -33 20 -50 11 -16 20 -41 20
-55 0 -14 9 -38 20 -55 11 -16 20 -41 20 -55 0 -14 9 -38 20 -55 11 -16 20
-41 20 -55 0 -14 9 -42 20 -63 11 -20 20 -44 20 -53 0 -9 9 -27 20 -41 11 -14
20 -33 20 -42 0 -20 37 -133 61 -187 11 -23 19 -47 19 -55 0 -17 36 -111 61
-160 11 -20 19 -47 19 -61 0 -13 6 -32 14 -43 7 -11 17 -36 21 -55 4 -19 13
-46 21 -60 8 -14 27 -65 43 -115 16 -49 36 -103 45 -120 9 -16 16 -39 16 -50
0 -11 6 -30 14 -41 8 -11 18 -38 22 -60 4 -21 15 -55 25 -74 11 -19 19 -39 19
-45 0 -11 35 -103 61 -161 11 -23 19 -47 19 -55 0 -7 9 -37 20 -66 20 -50 35
-90 82 -220 11 -32 26 -69 33 -83 7 -14 18 -41 23 -60 6 -19 23 -66 37 -105
15 -38 33 -88 40 -110 7 -22 26 -69 40 -105 45 -110 66 -163 80 -205 7 -22 20
-53 29 -70 9 -16 16 -36 16 -44 0 -14 26 -76 61 -143 10 -20 19 -46 19 -58 0
-11 9 -38 20 -60 11 -22 20 -47 20 -57 0 -10 9 -31 20 -48 11 -16 20 -40 20
-52 0 -12 9 -42 19 -65 10 -24 29 -68 41 -98 12 -30 31 -74 41 -98 10 -23 19
-52 19 -63 0 -11 9 -37 20 -59 11 -22 20 -46 20 -55 0 -8 9 -32 20 -52 11 -21
20 -45 20 -53 0 -8 7 -23 14 -32 7 -10 25 -57 40 -105 16 -49 37 -107 47 -131
10 -23 19 -49 19 -57 0 -8 9 -32 20 -52 11 -21 20 -46 20 -56 0 -10 9 -35 20
-57 11 -22 20 -46 20 -55 0 -9 9 -33 20 -55 11 -22 20 -48 20 -60 0 -11 9 -37
20 -57 11 -21 20 -46 20 -55 0 -10 9 -35 20 -55 11 -21 20 -43 20 -50 0 -7 9
-30 20 -50 11 -21 20 -46 20 -55 0 -10 9 -35 20 -55 11 -21 20 -47 21 -58 1
-27 59 -107 90 -122 30 -16 145 -17 187 -2 18 6 35 22 41 37 7 15 19 41 28 57
39 74 53 105 53 122 0 10 9 33 20 51 11 18 20 43 20 55 0 12 9 39 20 60 11 20
20 44 20 53 0 9 8 35 19 58 10 23 23 59 29 81 14 57 31 104 53 147 10 20 19
43 19 50 1 7 9 31 20 53 11 22 19 50 20 63 0 13 9 40 19 60 35 68 61 132 61
150 0 9 9 34 20 55 11 20 20 42 20 48 0 7 9 30 19 53 10 23 49 120 86 216 37
96 71 184 76 195 5 11 15 40 23 65 20 61 45 131 56 155 5 11 21 52 35 90 24
66 37 100 84 230 11 31 29 79 41 108 11 29 20 58 20 64 0 7 18 59 41 115 51
130 75 196 85 228 3 14 13 34 20 45 8 11 14 26 14 35 0 8 7 28 16 45 22 42 64
149 64 163 0 6 17 56 39 109 34 87 66 173 106 283 31 88 79 219 120 330 15 41
33 86 40 100 7 14 15 39 19 55 6 28 38 115 57 160 13 28 87 240 105 297 8 26
18 50 23 52 5 3 12 23 16 43 4 21 10 43 15 48 4 6 15 35 23 65 17 62 41 130
61 175 23 49 96 241 96 250 0 5 9 27 19 49 10 23 31 82 46 131 15 50 42 122
60 161 19 39 37 89 41 110 4 21 24 75 44 119 21 44 50 111 65 150 46 116 76
145 92 88 10 -35 5 -3499 -6 -4373 -5 -455 -11 -664 -19 -683 -7 -16 -17 -61
-22 -100 -6 -40 -17 -88 -25 -107 -7 -19 -16 -47 -19 -61 -8 -39 -92 -145
-147 -188 -26 -20 -73 -52 -104 -71 -86 -53 -105 -73 -105 -115 0 -47 14 -71
52 -91 27 -14 77 -16 407 -13 207 2 520 3 696 3 344 1 387 6 399 49 19 73 -8
112 -129 182 -73 42 -121 78 -147 111 -48 60 -71 98 -79 128 -4 17 -14 49 -23
71 -8 22 -15 55 -16 74 0 18 -6 59 -14 90 -8 31 -17 96 -21 146 -12 150 -8
5240 4 5320 6 39 15 86 21 105 5 19 10 53 10 75 1 22 8 58 16 80 9 22 20 59
25 82 6 23 17 47 25 54 8 6 14 17 14 24 0 15 118 127 157 149 15 8 42 22 59
30 18 9 48 31 68 49 55 52 49 99 -18 142 -17 11 -115 14 -493 17 l-471 3 -26
-24 c-28 -26 -76 -105 -76 -125 0 -6 -8 -27 -19 -46 -10 -19 -21 -52 -25 -72
-4 -20 -13 -50 -21 -65 -8 -15 -15 -35 -15 -43 0 -9 -7 -26 -16 -38 -8 -12
-21 -43 -29 -69 -19 -69 -43 -134 -60 -165 -8 -14 -15 -34 -15 -45 0 -10 -9
-35 -20 -56 -11 -20 -20 -43 -20 -49 -1 -7 -9 -31 -20 -53 -11 -22 -19 -49
-20 -59 0 -10 -9 -40 -21 -65 -11 -25 -29 -64 -39 -86 -10 -22 -21 -51 -25
-65 -3 -14 -12 -38 -20 -55 -7 -16 -23 -57 -35 -90 -12 -33 -30 -80 -40 -105
-42 -105 -60 -156 -60 -169 0 -7 -7 -27 -15 -44 -8 -18 -21 -50 -29 -72 -8
-22 -26 -71 -41 -110 -14 -38 -30 -84 -36 -102 -5 -18 -16 -45 -24 -60 -8 -15
-15 -37 -15 -47 0 -10 -8 -37 -19 -60 -30 -66 -60 -144 -93 -241 -6 -16 -19
-47 -29 -67 -10 -20 -19 -43 -19 -50 -1 -7 -9 -31 -20 -53 -11 -22 -19 -47
-20 -55 0 -8 -9 -30 -20 -48 -11 -18 -20 -43 -20 -55 0 -13 -9 -40 -20 -62
-11 -22 -20 -46 -20 -55 0 -8 -9 -32 -20 -53 -11 -20 -20 -43 -20 -50 0 -7 -9
-29 -20 -50 -11 -20 -20 -44 -20 -52 0 -9 -9 -33 -20 -55 -11 -22 -20 -47 -20
-56 0 -16 -21 -68 -57 -139 -8 -16 -28 -70 -44 -120 -17 -49 -36 -104 -44
-122 -8 -17 -15 -39 -15 -50 -1 -10 -9 -36 -20 -58 -11 -22 -19 -46 -20 -53 0
-7 -9 -30 -20 -52 -11 -22 -20 -49 -20 -61 0 -11 -7 -35 -15 -52 -13 -30 -26
-63 -55 -147 -33 -94 -53 -149 -69 -190 -10 -25 -24 -61 -31 -80 -6 -19 -20
-55 -30 -80 -10 -25 -24 -61 -30 -80 -7 -19 -21 -54 -31 -78 -11 -23 -19 -50
-19 -60 0 -9 -9 -30 -20 -47 -11 -16 -20 -39 -20 -50 0 -12 -9 -38 -20 -60
-11 -22 -20 -43 -20 -49 0 -5 -8 -27 -19 -50 -10 -23 -23 -56 -30 -73 -6 -18
-16 -48 -22 -65 -7 -18 -19 -53 -29 -78 -24 -63 -39 -107 -57 -165 -9 -27 -22
-59 -29 -70 -8 -11 -14 -30 -14 -43 0 -12 -9 -40 -20 -62 -11 -22 -20 -46 -20
-54 0 -9 -9 -30 -20 -48 -11 -18 -20 -42 -20 -53 0 -11 -9 -33 -20 -50 -11
-16 -20 -39 -20 -50 0 -11 -7 -30 -15 -43 -9 -12 -22 -41 -30 -64 -29 -89 -53
-156 -64 -174 -6 -10 -17 -36 -25 -56 -18 -47 -42 -49 -62 -6 -15 35 -24 50
-61 109 -13 19 -23 43 -23 52 0 16 -20 62 -61 139 -10 20 -19 45 -19 54 0 17
-24 75 -61 146 -10 20 -19 49 -19 63 0 14 -9 43 -20 65 -11 22 -20 47 -20 57
0 10 -7 29 -17 42 -9 13 -20 40 -24 60 -10 47 -38 128 -57 165 -9 17 -19 46
-23 65 -7 35 -32 103 -79 221 -12 30 -28 76 -36 103 -7 26 -20 57 -28 69 -9
12 -16 30 -16 40 0 16 -9 39 -61 154 -11 23 -19 50 -19 60 0 19 -27 94 -61
172 -10 23 -19 50 -19 60 -1 9 -9 35 -20 57 -11 22 -19 46 -20 54 0 8 -9 32
-19 55 -35 76 -61 145 -61 163 0 10 -9 32 -20 48 -11 17 -20 37 -20 45 0 8 -6
27 -14 42 -8 15 -17 42 -21 60 -4 18 -13 44 -21 58 -8 14 -28 67 -44 119 -17
52 -36 103 -42 115 -6 11 -15 34 -19 51 -4 16 -20 62 -34 100 -14 39 -34 93
-44 120 -11 28 -24 66 -31 85 -8 19 -22 59 -32 87 -49 138 -62 171 -79 209
-11 23 -19 47 -19 55 0 15 -32 100 -61 165 -11 23 -19 47 -19 55 0 14 -31 96
-61 164 -10 22 -27 66 -39 97 -47 129 -62 170 -82 225 -23 64 -49 132 -69 178
-13 32 -39 98 -59 155 -20 55 -51 132 -66 165 -8 17 -20 50 -28 75 -31 98 -87
244 -137 358 -10 23 -19 48 -19 55 0 7 -16 51 -36 97 -19 47 -48 123 -64 170
-33 96 -68 189 -100 270 -12 30 -28 72 -36 93 -8 21 -24 51 -36 67 -42 57 -45
57 -518 62 -239 3 -450 1 -467 -2z"/>
</g>
</svg>
